<svg width="316" height="114" viewBox="0 0 316 114" fill="none" xmlns="http://www.w3.org/2000/svg">
<path d="M44.1053 30.0338C48.0561 30.0338 51.1902 31.2308 53.5076 33.6248C55.8629 36.0188 57.0406 39.3437 57.0406 43.5998V62.1818H47.3534V44.9108C47.3534 42.8588 46.8025 41.2817 45.7009 40.1798C44.6371 39.0398 43.1555 38.4698 41.2561 38.4698C39.3568 38.4698 37.856 39.0398 36.7544 40.1798C35.6907 41.2817 35.1589 42.8588 35.1589 44.9108V62.1818H25.4717V44.9108C25.4717 42.8588 24.9208 41.2817 23.8192 40.1798C22.7555 39.0398 21.2739 38.4698 19.3744 38.4698C17.475 38.4698 15.9744 39.0398 14.8727 40.1798C13.809 41.2817 13.2772 42.8588 13.2772 44.9108V62.1818H3.53299V30.3758H13.2772V34.3658C14.2649 33.0359 15.5565 31.9907 17.1521 31.2308C18.7476 30.4328 20.5521 30.0338 22.5655 30.0338C24.9588 30.0338 27.0861 30.5468 28.9477 31.5728C30.847 32.5988 32.3286 34.0619 33.3924 35.9618C34.494 34.2137 35.9947 32.7887 37.8941 31.6868C39.7935 30.5849 41.8641 30.0338 44.1053 30.0338ZM78.3294 62.6378C75.2142 62.6378 72.4031 61.9727 69.8958 60.6428C67.4264 59.3129 65.47 57.4127 64.0265 54.9428C62.6209 52.4729 61.9181 49.5848 61.9181 46.2788C61.9181 43.0109 62.6398 40.1417 64.0835 37.6718C65.527 35.1638 67.5025 33.2447 70.0098 31.9148C72.5171 30.5849 75.3282 29.9198 78.4434 29.9198C81.5583 29.9198 84.3697 30.5849 86.877 31.9148C89.3842 33.2447 91.3595 35.1638 92.8033 37.6718C94.2468 40.1417 94.9686 43.0109 94.9686 46.2788C94.9686 49.5467 94.2278 52.4348 92.7463 54.9428C91.3025 57.4127 89.3081 59.3129 86.763 60.6428C84.2557 61.9727 81.4444 62.6378 78.3294 62.6378ZM78.3294 54.2018C80.1907 54.2018 81.7673 53.5178 83.0591 52.1498C84.3886 50.7818 85.0535 48.8249 85.0535 46.2788C85.0535 43.7327 84.4075 41.7758 83.116 40.4078C81.8624 39.0398 80.3047 38.3558 78.4434 38.3558C76.5438 38.3558 74.9674 39.0398 73.7137 40.4078C72.4601 41.7377 71.8333 43.6949 71.8333 46.2788C71.8333 48.8249 72.4409 50.7818 73.6568 52.1498C74.9104 53.5178 76.4679 54.2018 78.3294 54.2018Z" fill="#FF0000"/>
<path d="M98.2006 46.2218C98.2006 42.9539 98.8083 40.0847 100.024 37.6148C101.278 35.1449 102.968 33.2447 105.096 31.9148C107.223 30.5849 109.597 29.9198 112.219 29.9198C114.46 29.9198 116.416 30.3758 118.088 31.2878C119.797 32.1998 121.108 33.3968 122.02 34.8788V30.3758H131.764V62.1818H122.02V57.6788C121.07 59.1608 119.74 60.3578 118.031 61.2698C116.359 62.1818 114.403 62.6378 112.162 62.6378C109.578 62.6378 107.223 61.9727 105.096 60.6428C102.968 59.2748 101.278 57.3557 100.024 54.8858C98.8083 52.3778 98.2006 49.4897 98.2006 46.2218ZM122.02 46.2788C122.02 43.8467 121.336 41.9279 119.968 40.5218C118.639 39.1157 117.005 38.4128 115.068 38.4128C113.13 38.4128 111.478 39.1157 110.11 40.5218C108.78 41.8898 108.116 43.7897 108.116 46.2218C108.116 48.6539 108.78 50.5919 110.11 52.0358C111.478 53.4419 113.13 54.1448 115.068 54.1448C117.005 54.1448 118.639 53.4419 119.968 52.0358C121.336 50.6297 122.02 48.7109 122.02 46.2788ZM148.558 34.8788C149.469 33.3968 150.78 32.1998 152.489 31.2878C154.199 30.3758 156.155 29.9198 158.359 29.9198C160.98 29.9198 163.354 30.5849 165.482 31.9148C167.609 33.2447 169.281 35.1449 170.496 37.6148C171.75 40.0847 172.377 42.9539 172.377 46.2218C172.377 49.4897 171.75 52.3778 170.496 54.8858C169.281 57.3557 167.609 59.2748 165.482 60.6428C163.354 61.9727 160.98 62.6378 158.359 62.6378C156.117 62.6378 154.161 62.2007 152.489 61.3268C150.818 60.4148 149.507 59.2178 148.558 57.7358V62.1818H138.813V20.0018H148.558V34.8788ZM162.462 46.2218C162.462 43.7897 161.778 41.8898 160.41 40.5218C159.081 39.1157 157.428 38.4128 155.453 38.4128C153.515 38.4128 151.863 39.1157 150.495 40.5218C149.165 41.9279 148.501 43.8467 148.501 46.2788C148.501 48.7109 149.165 50.6297 150.495 52.0358C151.863 53.4419 153.515 54.1448 155.453 54.1448C157.39 54.1448 159.043 53.4419 160.41 52.0358C161.778 50.5919 162.462 48.6539 162.462 46.2218ZM190.424 62.6378C187.651 62.6378 185.182 62.1629 183.016 61.2128C180.851 60.2627 179.141 58.9709 177.888 57.3368C176.634 55.6649 175.931 53.8028 175.779 51.7508H185.41C185.524 52.8527 186.036 53.7458 186.948 54.4298C187.86 55.1138 188.98 55.4558 190.31 55.4558C191.526 55.4558 192.456 55.2278 193.102 54.7718C193.786 54.2777 194.128 53.6507 194.128 52.8908C194.128 51.9788 193.653 51.3137 192.704 50.8958C191.754 50.4398 190.215 49.9457 188.088 49.4138C185.809 48.8819 183.909 48.3308 182.39 47.7608C180.87 47.1527 179.559 46.2218 178.458 44.9678C177.356 43.6757 176.805 41.9468 176.805 39.7808C176.805 37.9568 177.299 36.3038 178.287 34.8218C179.312 33.3017 180.794 32.1047 182.731 31.2308C184.707 30.3569 187.043 29.9198 189.74 29.9198C193.729 29.9198 196.863 30.9077 199.143 32.8838C201.46 34.8599 202.79 37.4819 203.132 40.7498H194.128C193.976 39.6479 193.482 38.7737 192.647 38.1278C191.849 37.4819 190.785 37.1588 189.455 37.1588C188.316 37.1588 187.442 37.3868 186.834 37.8428C186.226 38.2607 185.922 38.8499 185.922 39.6098C185.922 40.5218 186.397 41.2058 187.347 41.6618C188.335 42.1178 189.854 42.5738 191.906 43.0298C194.261 43.6379 196.18 44.2457 197.661 44.8538C199.143 45.4238 200.434 46.3739 201.536 47.7038C202.676 48.9959 203.264 50.7437 203.302 52.9478C203.302 54.8099 202.77 56.4818 201.707 57.9638C200.681 59.4077 199.181 60.5477 197.205 61.3838C195.268 62.2199 193.007 62.6378 190.424 62.6378ZM239.237 45.7658C239.237 46.6778 239.18 47.6279 239.066 48.6158H217.014C217.166 50.5919 217.792 52.1117 218.894 53.1758C220.034 54.2018 221.42 54.7148 223.054 54.7148C225.485 54.7148 227.176 53.6888 228.125 51.6368H238.496C237.965 53.7269 236.996 55.6079 235.59 57.2798C234.223 58.9517 232.494 60.2627 230.405 61.2128C228.315 62.1629 225.979 62.6378 223.396 62.6378C220.281 62.6378 217.507 61.9727 215.076 60.6428C212.645 59.3129 210.745 57.4127 209.378 54.9428C208.01 52.4729 207.326 49.5848 207.326 46.2788C207.326 42.9728 207.991 40.0847 209.321 37.6148C210.688 35.1449 212.588 33.2447 215.019 31.9148C217.45 30.5849 220.243 29.9198 223.396 29.9198C226.473 29.9198 229.208 30.5657 231.601 31.8578C233.995 33.1499 235.856 34.9928 237.186 37.3868C238.553 39.7808 239.237 42.5738 239.237 45.7658ZM229.265 43.2008C229.265 41.5289 228.695 40.1987 227.555 39.2108C226.416 38.2229 224.991 37.7288 223.282 37.7288C221.648 37.7288 220.262 38.2037 219.122 39.1538C218.02 40.1039 217.337 41.4527 217.071 43.2008H229.265ZM263.751 30.0338C267.476 30.0338 270.439 31.2497 272.641 33.6818C274.884 36.0758 276.003 39.3818 276.003 43.5998V62.1818H266.316V44.9108C266.316 42.7829 265.766 41.1299 264.663 39.9518C263.562 38.7737 262.081 38.1848 260.218 38.1848C258.358 38.1848 256.876 38.7737 255.775 39.9518C254.673 41.1299 254.122 42.7829 254.122 44.9108V62.1818H244.378V30.3758H254.122V34.5938C255.11 33.1877 256.439 32.0858 258.111 31.2878C259.783 30.4517 261.664 30.0338 263.751 30.0338Z" fill="black"/>
<path d="M17.841 76.5251C18.7251 76.5251 19.5126 76.7116 20.2033 77.0847C20.894 77.4441 21.4396 77.9897 21.8403 78.7222C22.2409 79.4546 22.4412 80.3459 22.4412 81.396V88.0909H20.5763V81.6654C20.5763 80.5324 20.2931 79.6686 19.7267 79.0745C19.1741 78.4664 18.4212 78.1625 17.4681 78.1625C16.4872 78.1625 15.7067 78.4804 15.1266 79.116C14.5464 79.7378 14.2563 80.6428 14.2563 81.8313V88.0909H12.3913V81.6654C12.3913 80.5324 12.1082 79.6686 11.5418 79.0745C10.9892 78.4664 10.2363 78.1625 9.28314 78.1625C8.30232 78.1625 7.52183 78.4804 6.94163 79.116C6.36144 79.7378 6.07134 80.6428 6.07134 81.8313V88.0909H4.1857V76.7323H6.07134V78.3698C6.44432 77.7757 6.94163 77.3197 7.56327 77.0018C8.19872 76.6839 8.89635 76.5251 9.65613 76.5251C10.6093 76.5251 11.452 76.7393 12.1841 77.1676C12.9163 77.5959 13.4619 78.2247 13.8211 79.0538C14.1388 78.2524 14.6638 77.6306 15.3959 77.1883C16.1281 76.7461 16.9431 76.5251 17.841 76.5251ZM29.5543 88.2774C28.4905 88.2774 27.5236 88.0357 26.6533 87.552C25.7968 87.0683 25.1199 86.3843 24.6226 85.5C24.1391 84.6017 23.8973 83.5654 23.8973 82.3909C23.8973 81.2302 24.146 80.2075 24.6433 79.3233C25.1544 78.425 25.8451 77.741 26.7155 77.2713C27.5858 76.7875 28.5597 76.5458 29.6372 76.5458C30.7147 76.5458 31.6886 76.7875 32.5589 77.2713C33.4292 77.741 34.113 78.4183 34.6103 79.3025C35.1213 80.1868 35.377 81.2164 35.377 82.3909C35.377 83.5654 35.1146 84.6017 34.5896 85.5C34.0785 86.3843 33.3807 87.0683 32.4967 87.552C31.6127 88.0357 30.6318 88.2774 29.5543 88.2774ZM29.5543 86.6193C30.2311 86.6193 30.8667 86.4604 31.4606 86.1425C32.0546 85.8246 32.5312 85.3479 32.8904 84.7123C33.2634 84.0768 33.4499 83.3029 33.4499 82.3909C33.4499 81.4789 33.2704 80.705 32.9111 80.0694C32.5519 79.4339 32.0823 78.9639 31.5021 78.66C30.9219 78.3421 30.2933 78.1833 29.6164 78.1833C28.9257 78.1833 28.2903 78.3421 27.7101 78.66C27.1436 78.9639 26.6877 79.4339 26.3425 80.0694C25.9972 80.705 25.8244 81.4789 25.8244 82.3909C25.8244 83.3166 25.9902 84.0975 26.3218 84.7331C26.667 85.3686 27.1229 85.8454 27.6894 86.1633C28.2558 86.4672 28.8775 86.6193 29.5543 86.6193ZM38.8095 78.8465C39.1962 78.1695 39.7626 77.6166 40.5086 77.1883C41.2546 76.7601 42.1041 76.5458 43.0573 76.5458C44.0794 76.5458 44.9981 76.7875 45.8133 77.2713C46.6281 77.755 47.2705 78.439 47.7403 79.3233C48.2099 80.1938 48.4449 81.2094 48.4449 82.3702C48.4449 83.5172 48.2099 84.5395 47.7403 85.4378C47.2705 86.3361 46.6214 87.0338 45.7925 87.5313C44.9774 88.0287 44.0657 88.2774 43.0573 88.2774C42.0764 88.2774 41.2131 88.0632 40.4672 87.6349C39.7349 87.2066 39.1824 86.6607 38.8095 85.9974V88.0909H36.9238V72.7527H38.8095V78.8465ZM46.5178 82.3702C46.5178 81.5134 46.345 80.7672 45.9998 80.1316C45.6542 79.4961 45.1846 79.0124 44.5907 78.6807C44.0105 78.3491 43.3681 78.1833 42.6636 78.1833C41.9728 78.1833 41.3305 78.3561 40.7365 78.7014C40.1563 79.0331 39.6865 79.5235 39.3275 80.1731C38.982 80.8086 38.8095 81.5481 38.8095 82.3909C38.8095 83.2477 38.982 84.0006 39.3275 84.6502C39.6865 85.2857 40.1563 85.7764 40.7365 86.1218C41.3305 86.4534 41.9728 86.6193 42.6636 86.6193C43.3681 86.6193 44.0105 86.4534 44.5907 86.1218C45.1846 85.7764 45.6542 85.2857 45.9998 84.6502C46.345 84.0006 46.5178 83.2407 46.5178 82.3702ZM50.9682 74.8876C50.6092 74.8876 50.3051 74.7633 50.0565 74.5145C49.8078 74.2658 49.6835 73.9619 49.6835 73.6025C49.6835 73.2432 49.8078 72.9393 50.0565 72.6905C50.3051 72.4418 50.6092 72.3174 50.9682 72.3174C51.3137 72.3174 51.6038 72.4418 51.8385 72.6905C52.0872 72.9393 52.2115 73.2432 52.2115 73.6025C52.2115 73.9619 52.0872 74.2658 51.8385 74.5145C51.6038 74.7633 51.3137 74.8876 50.9682 74.8876ZM51.8799 76.7323V88.0909H49.9943V76.7323H51.8799ZM56.047 72.7527V88.0909H54.1614V72.7527H56.047ZM68.6888 81.9763C68.6888 82.3357 68.6681 82.7155 68.6266 83.1164H59.5507C59.6199 84.2356 59.9999 85.1132 60.6904 85.7487C61.3949 86.3705 62.2445 86.6814 63.2391 86.6814C64.0542 86.6814 64.731 86.4949 65.2698 86.1218C65.8225 85.735 66.2093 85.2235 66.4302 84.588H68.4609C68.1571 85.6795 67.5491 86.5708 66.6374 87.2618C65.7257 87.9388 64.593 88.2774 63.2391 88.2774C62.1616 88.2774 61.1947 88.0357 60.3381 87.552C59.4955 87.0683 58.8325 86.3843 58.3489 85.5C57.8656 84.6017 57.6236 83.5654 57.6236 82.3909C57.6236 81.2164 57.8586 80.1868 58.3282 79.3025C58.798 78.4183 59.4541 77.741 60.2967 77.2713C61.1533 76.7875 62.1341 76.5458 63.2391 76.5458C64.3166 76.5458 65.2698 76.7808 66.0986 77.2505C66.9275 77.7203 67.5631 78.3698 68.005 79.1989C68.4609 80.0143 68.6888 80.94 68.6888 81.9763ZM66.741 81.5825C66.741 80.8641 66.5822 80.249 66.2644 79.7378C65.9469 79.2126 65.5117 78.8188 64.959 78.5563C64.4202 78.2799 63.8193 78.1418 63.1562 78.1418C62.203 78.1418 61.3882 78.4457 60.7111 79.0538C60.048 79.6619 59.6683 80.5047 59.5714 81.5825H66.741ZM74.1328 82.3702C74.1328 81.2094 74.3675 80.1938 74.8373 79.3233C75.3069 78.439 75.9493 77.755 76.7644 77.2713C77.5933 76.7875 78.5117 76.5458 79.5204 76.5458C80.515 76.5458 81.3783 76.7601 82.1105 77.1883C82.8425 77.6166 83.3883 78.1555 83.7475 78.8051V76.7323H85.6539V88.0909H83.7475V85.9767C83.3745 86.64 82.815 87.1926 82.0691 87.6349C81.3368 88.0632 80.4803 88.2774 79.4996 88.2774C78.491 88.2774 77.5793 88.0287 76.7644 87.5313C75.9493 87.0338 75.3069 86.3361 74.8373 85.4378C74.3675 84.5395 74.1328 83.5172 74.1328 82.3702ZM83.7475 82.3909C83.7475 81.5341 83.5747 80.7879 83.2295 80.1524C82.8839 79.5168 82.4144 79.0331 81.8204 78.7014C81.2402 78.3561 80.5979 78.1833 79.8933 78.1833C79.1888 78.1833 78.5465 78.3491 77.9663 78.6807C77.3861 79.0124 76.9232 79.4961 76.5779 80.1316C76.2324 80.7672 76.0599 81.5134 76.0599 82.3702C76.0599 83.2407 76.2324 84.0006 76.5779 84.6502C76.9232 85.2857 77.3861 85.7764 77.9663 86.1218C78.5465 86.4534 79.1888 86.6193 79.8933 86.6193C80.5979 86.6193 81.2402 86.4534 81.8204 86.1218C82.4144 85.7764 82.8839 85.2857 83.2295 84.6502C83.5747 84.0006 83.7475 83.2477 83.7475 82.3909ZM89.7935 78.8465C90.1804 78.1695 90.7467 77.6166 91.4926 77.1883C92.2386 76.7601 93.0882 76.5458 94.0413 76.5458C95.0637 76.5458 95.9824 76.7875 96.7973 77.2713C97.6124 77.755 98.2548 78.439 98.7243 79.3233C99.1942 80.1938 99.4289 81.2094 99.4289 82.3702C99.4289 83.5172 99.1942 84.5395 98.7243 85.4378C98.2548 86.3361 97.6054 87.0338 96.7765 87.5313C95.9617 88.0287 95.0499 88.2774 94.0413 88.2774C93.0607 88.2774 92.1971 88.0632 91.4512 87.6349C90.7192 87.2066 90.1664 86.6607 89.7935 85.9974V88.0909H87.9078V72.7527H89.7935V78.8465ZM97.5018 82.3702C97.5018 81.5134 97.3293 80.7672 96.9838 80.1316C96.6385 79.4961 96.1689 79.0124 95.5747 78.6807C94.9945 78.3491 94.3522 78.1833 93.6476 78.1833C92.9571 78.1833 92.3147 78.3561 91.7205 78.7014C91.1403 79.0331 90.6708 79.5235 90.3115 80.1731C89.9662 80.8086 89.7935 81.5481 89.7935 82.3909C89.7935 83.2477 89.9662 84.0006 90.3115 84.6502C90.6708 85.2857 91.1403 85.7764 91.7205 86.1218C92.3147 86.4534 92.9571 86.6193 93.6476 86.6193C94.3522 86.6193 94.9945 86.4534 95.5747 86.1218C96.1689 85.7764 96.6385 85.2857 96.9838 84.6502C97.3293 84.0006 97.5018 83.2407 97.5018 82.3702ZM104.999 88.2774C104.128 88.2774 103.348 88.1323 102.657 87.8422C101.966 87.5383 101.42 87.1237 101.02 86.5985C100.619 86.0596 100.398 85.4448 100.357 84.7538H102.305C102.36 85.3204 102.622 85.7832 103.092 86.1425C103.575 86.5019 104.204 86.6814 104.978 86.6814C105.696 86.6814 106.262 86.5226 106.677 86.2047C107.091 85.8868 107.299 85.4862 107.299 85.0025C107.299 84.5051 107.077 84.139 106.635 83.904C106.193 83.6553 105.51 83.4135 104.584 83.1785C103.741 82.9575 103.051 82.7363 102.512 82.5153C101.987 82.2803 101.531 81.9419 101.144 81.4996C100.771 81.0436 100.585 80.4495 100.585 79.7171C100.585 79.1367 100.757 78.6048 101.103 78.1211C101.448 77.6374 101.938 77.2575 102.574 76.9811C103.209 76.6909 103.935 76.5458 104.75 76.5458C106.007 76.5458 107.022 76.8637 107.796 77.4993C108.569 78.1348 108.984 79.0054 109.039 80.1109H107.154C107.112 79.5168 106.87 79.0401 106.428 78.6807C106 78.3214 105.42 78.1418 104.688 78.1418C104.011 78.1418 103.472 78.2869 103.071 78.5771C102.671 78.8673 102.471 79.2473 102.471 79.7171C102.471 80.0902 102.588 80.4011 102.823 80.6498C103.071 80.8848 103.375 81.0781 103.735 81.2302C104.107 81.3683 104.619 81.5273 105.268 81.7069C106.083 81.9279 106.746 82.1492 107.257 82.3702C107.768 82.5774 108.203 82.8953 108.563 83.3236C108.936 83.7519 109.129 84.3115 109.143 85.0025C109.143 85.6243 108.97 86.184 108.625 86.6814C108.279 87.1789 107.789 87.5727 107.154 87.8629C106.532 88.1393 105.813 88.2774 104.999 88.2774ZM121.233 81.9763C121.233 82.3357 121.212 82.7155 121.171 83.1164H112.095C112.164 84.2356 112.544 85.1132 113.234 85.7487C113.939 86.3705 114.789 86.6814 115.783 86.6814C116.598 86.6814 117.275 86.4949 117.814 86.1218C118.366 85.735 118.753 85.2235 118.974 84.588H121.005C120.701 85.6795 120.093 86.5708 119.181 87.2618C118.27 87.9388 117.137 88.2774 115.783 88.2774C114.706 88.2774 113.738 88.0357 112.882 87.552C112.039 87.0683 111.376 86.3843 110.893 85.5C110.409 84.6017 110.168 83.5654 110.168 82.3909C110.168 81.2164 110.402 80.1868 110.872 79.3025C111.342 78.4183 111.998 77.741 112.841 77.2713C113.697 76.7875 114.678 76.5458 115.783 76.5458C116.861 76.5458 117.814 76.7808 118.643 77.2505C119.472 77.7203 120.107 78.3698 120.549 79.1989C121.005 80.0143 121.233 80.94 121.233 81.9763ZM119.285 81.5825C119.285 80.8641 119.126 80.249 118.808 79.7378C118.491 79.2126 118.056 78.8188 117.503 78.5563C116.964 78.2799 116.363 78.1418 115.7 78.1418C114.747 78.1418 113.932 78.4457 113.255 79.0538C112.592 79.6619 112.212 80.5047 112.115 81.5825H119.285ZM128.322 76.5251C129.703 76.5251 130.822 76.9466 131.679 77.7894C132.535 78.6185 132.963 79.8207 132.963 81.396V88.0909H131.099V81.6654C131.099 80.5324 130.815 79.6686 130.249 79.0745C129.683 78.4664 128.909 78.1625 127.928 78.1625C126.934 78.1625 126.139 78.4734 125.545 79.0953C124.965 79.7171 124.675 80.6221 124.675 81.8105V88.0909H122.789V76.7323H124.675V78.3491C125.048 77.7687 125.552 77.3197 126.188 77.0018C126.837 76.6839 127.548 76.5251 128.322 76.5251ZM139.131 88.2774C138.261 88.2774 137.48 88.1323 136.79 87.8422C136.099 87.5383 135.553 87.1237 135.153 86.5985C134.752 86.0596 134.531 85.4448 134.49 84.7538H136.437C136.493 85.3204 136.755 85.7832 137.225 86.1425C137.708 86.5019 138.337 86.6814 139.11 86.6814C139.829 86.6814 140.395 86.5226 140.81 86.2047C141.224 85.8868 141.431 85.4862 141.431 85.0025C141.431 84.5051 141.21 84.139 140.768 83.904C140.326 83.6553 139.642 83.4135 138.717 83.1785C137.874 82.9575 137.183 82.7363 136.645 82.5153C136.12 82.2803 135.664 81.9419 135.277 81.4996C134.904 81.0436 134.718 80.4495 134.718 79.7171C134.718 79.1367 134.89 78.6048 135.236 78.1211C135.581 77.6374 136.071 77.2575 136.707 76.9811C137.342 76.6909 138.067 76.5458 138.883 76.5458C140.14 76.5458 141.155 76.8637 141.929 77.4993C142.702 78.1348 143.117 79.0054 143.172 80.1109H141.286C141.245 79.5168 141.003 79.0401 140.561 78.6807C140.133 78.3214 139.553 78.1418 138.82 78.1418C138.144 78.1418 137.605 78.2869 137.204 78.5771C136.803 78.8673 136.603 79.2473 136.603 79.7171C136.603 80.0902 136.72 80.4011 136.955 80.6498C137.204 80.8848 137.508 81.0781 137.867 81.2302C138.24 81.3683 138.751 81.5273 139.401 81.7069C140.216 81.9279 140.879 82.1492 141.39 82.3702C141.901 82.5774 142.336 82.8953 142.695 83.3236C143.068 83.7519 143.262 84.3115 143.275 85.0025C143.275 85.6243 143.103 86.184 142.757 86.6814C142.412 87.1789 141.922 87.5727 141.286 87.8629C140.665 88.1393 139.946 88.2774 139.131 88.2774ZM145.979 74.8876C145.62 74.8876 145.316 74.7633 145.067 74.5145C144.818 74.2658 144.694 73.9619 144.694 73.6025C144.694 73.2432 144.818 72.9393 145.067 72.6905C145.316 72.4418 145.62 72.3174 145.979 72.3174C146.324 72.3174 146.614 72.4418 146.849 72.6905C147.098 72.9393 147.222 73.2432 147.222 73.6025C147.222 73.9619 147.098 74.2658 146.849 74.5145C146.614 74.7633 146.324 74.8876 145.979 74.8876ZM146.891 76.7323V88.0909H145.005V76.7323H146.891Z" fill="black"/>
</svg>
